HIERARCHY
ROOT Hips
{
	OFFSET -0.001795 -0.223333 0.028219
	CHANNELS 6 Xposition Yposition Zposition Zrotation Yrotation Xrotation 
	JOINT LeftUpLeg
	{
		OFFSET 0.069520 -0.091406 -0.006815
		CHANNELS 3 Zrotation Yrotation Xrotation
		JOINT LeftLeg
		{
			OFFSET 0.034277 -0.375199 -0.004496
			CHANNELS 3 Zrotation Yrotation Xrotation
			JOINT LeftFoot
			{
				OFFSET -0.013596 -0.397961 -0.043693
				CHANNELS 3 Zrotation Yrotation Xrotation
				JOINT LeftToe
				{
					OFFSET 0.026358 -0.055791 0.119288
					CHANNELS 3 Zrotation Yrotation Xrotation
					End Site
					{
						OFFSET 0.000000 0.000000 0.000000
					}
				}
			}
		}
	}
	JOINT RightUpLeg
	{
		OFFSET -0.067670 -0.090522 -0.004320
		CHANNELS 3 Zrotation Yrotation Xrotation
		JOINT RightLeg
		{
			OFFSET -0.038290 -0.382569 -0.008850
			CHANNELS 3 Zrotation Yrotation Xrotation
			JOINT RightFoot
			{
				OFFSET 0.015774 -0.398415 -0.042312
				CHANNELS 3 Zrotation Yrotation Xrotation
				JOINT RightToe
				{
					OFFSET -0.025372 -0.048144 0.123348
					CHANNELS 3 Zrotation Yrotation Xrotation
					End Site
					{
						OFFSET 0.000000 0.000000 0.000000
					}
				}
			}
		}
	}
	JOINT Spine
	{
		OFFSET -0.002533 0.108963 -0.026696
		CHANNELS 3 Zrotation Yrotation Xrotation
		JOINT Spine1
		{
			OFFSET 0.005487 0.135180 0.001092
			CHANNELS 3 Zrotation Yrotation Xrotation
			JOINT Spine2
			{
				OFFSET 0.001457 0.052922 0.025425
				CHANNELS 3 Zrotation Yrotation Xrotation
				JOINT Neck
				{
					OFFSET -0.002778 0.213870 -0.042857
					CHANNELS 3 Zrotation Yrotation Xrotation
					JOINT Head
					{
						OFFSET 0.005152 0.064970 0.051349
						CHANNELS 3 Zrotation Yrotation Xrotation
						End Site
						{
							OFFSET 0.000000 0.000000 0.000000
						}
					}
				}
				JOINT LeftShoulder
				{
					OFFSET 0.078845 0.121749 -0.034090
					CHANNELS 3 Zrotation Yrotation Xrotation
					JOINT LeftArm
					{
						OFFSET 0.090977 0.030469 -0.008868
						CHANNELS 3 Zrotation Yrotation Xrotation
						JOINT LeftForeArm
						{
							OFFSET 0.259612 -0.012772 -0.027456
							CHANNELS 3 Zrotation Yrotation Xrotation
							JOINT LeftHand
							{
								OFFSET 0.249234 0.008986 -0.001171
								CHANNELS 3 Zrotation Yrotation Xrotation
								End Site
								{
									OFFSET 0.000000 0.000000 0.000000
								}
							}
						}
					}
				}
				JOINT RightShoulder
				{
					OFFSET -0.081759 0.118833 -0.038615
					CHANNELS 3 Zrotation Yrotation Xrotation
					JOINT RightArm
					{
						OFFSET -0.096012 0.032551 -0.009143
						CHANNELS 3 Zrotation Yrotation Xrotation
						JOINT RightForeArm
						{
							OFFSET -0.253742 -0.013329 -0.021401
							CHANNELS 3 Zrotation Yrotation Xrotation
							JOINT RightHand
							{
								OFFSET -0.255298 0.007772 -0.005559
								CHANNELS 3 Zrotation Yrotation Xrotation
								End Site
								{
									OFFSET 0.000000 0.000000 0.000000
								}
							}
						}
					}
				}
			}
		}
	}
}
MOTION
Frames: 10
Frame Time: 0.050000
0.000000 0.932226 0.000000 -2.371654 -3.885154 15.477115 -4.198165 -1.483004 -13.545843 -1.333574 0.082420 3.615940 8.001760 16.925677 2.508897 0.000000 0.000000 0.000000 1.339594 2.539580 -22.081632 6.344913 -0.671887 9.721459 -9.044715 -22.425641 4.239388 0.000000 0.000000 0.000000 -1.520804 0.030431 2.276876 2.306219 -0.397037 -15.020029 -0.525018 -0.696181 19.190569 1.170202 0.501349 -24.995749 0.000000 0.000000 0.000000 -8.382609 6.672781 -3.212436 -60.277651 -8.710285 -3.732351 -20.979514 -29.604368 7.475372 0.000000 0.000000 0.000000 5.940472 -1.937127 -1.419670 65.295247 7.903809 -3.703552 10.354095 32.458531 4.086322 0.000000 0.000000 0.000000 
0.002221 0.934610 -0.020970 -3.001904 -5.093954 15.977219 -3.018911 -1.401085 -13.744958 -2.127527 0.223709 1.846233 9.139581 19.117998 2.924786 0.000000 0.000000 0.000000 0.566679 2.565732 -22.752023 7.893389 -0.881735 8.998329 -8.690708 -21.795131 5.704801 0.000000 0.000000 0.000000 -2.286652 0.105814 2.038859 2.362920 -0.389261 -15.992729 0.556658 -0.385026 21.035151 0.293269 1.073017 -28.322158 0.000000 0.000000 0.000000 -10.383385 8.306195 -4.116979 -59.260421 -9.201997 -3.660531 -21.958779 -30.185533 8.062626 0.000000 0.000000 0.000000 4.781289 -2.626535 -1.570816 66.993826 8.404118 -3.776496 12.530341 32.805667 4.767108 0.000000 0.000000 0.000000 
0.003834 0.937222 -0.038119 -3.602718 -4.986035 14.973793 -1.889861 -1.218676 -12.660917 -2.918624 0.330190 1.406598 9.514690 19.782401 3.571847 0.000000 0.000000 0.000000 -0.758765 2.429087 -23.103755 10.475778 -1.426011 11.788641 -10.945933 -26.246014 5.637203 0.000000 0.000000 0.000000 -1.106215 0.010909 1.823371 1.963907 -0.348547 -14.332386 -0.022889 -0.428881 19.788249 0.299938 1.062990 -27.624799 0.000000 0.000000 0.000000 -9.823684 7.309984 -3.600085 -60.005606 -6.887909 -4.707346 -22.273716 -30.638786 8.230015 0.000000 0.000000 0.000000 5.448435 -2.219085 -1.500595 68.122457 6.740084 -4.664397 12.340275 32.694920 4.662424 0.000000 0.000000 0.000000 
0.004714 0.939342 -0.051306 -3.979769 -6.594607 15.180635 -1.638570 -1.205195 -12.840480 -3.953656 0.479775 1.123817 10.411409 21.324927 5.093483 0.000000 0.000000 0.000000 -0.853388 2.547617 -23.654717 9.849508 -1.353568 15.773425 -11.036853 -26.391138 6.688188 0.000000 0.000000 0.000000 -2.224696 0.140230 0.262523 2.012866 -0.374028 -14.804991 0.983962 -0.530939 20.662450 -0.809886 1.514102 -28.714537 0.000000 0.000000 0.000000 -9.069949 8.659253 -4.038787 -62.313391 -4.538070 -5.913392 -23.984416 -29.212327 8.456837 0.000000 0.000000 0.000000 4.010760 -1.515682 -1.088845 68.822724 6.146508 -5.406459 14.224566 30.421664 4.706456 0.000000 0.000000 0.000000 
0.005394 0.939735 -0.061348 -3.603865 -6.171401 14.957736 -1.741178 -1.210693 -12.753884 -3.822532 0.453075 -0.270417 9.785381 20.145826 5.748239 0.000000 0.000000 0.000000 -1.280917 2.282011 -22.052328 8.552634 -1.134316 18.206979 -11.843497 -27.981263 5.185185 0.000000 0.000000 0.000000 -2.318746 0.161705 -0.461026 1.939912 -0.360727 -14.401517 0.267918 -0.161493 19.808496 0.735792 0.772119 -27.422838 0.000000 0.000000 0.000000 -7.786306 8.043814 -3.692726 -63.850703 -3.304549 -6.622844 -24.403995 -27.474897 7.938899 0.000000 0.000000 0.000000 4.787726 -1.754853 -1.249242 69.534067 4.740431 -6.080077 13.133023 28.256397 4.102460 0.000000 0.000000 0.000000 
0.005769 0.939645 -0.069087 -3.092345 -6.042681 15.402980 -2.195357 -1.361112 -14.019774 -3.561921 0.420231 -0.623283 9.297745 19.313454 4.993669 0.000000 0.000000 0.000000 -0.731391 2.070426 -19.734649 6.649308 -0.672315 18.555390 -12.206655 -28.463390 5.975914 0.000000 0.000000 0.000000 -3.133708 0.246240 -2.090369 1.763349 -0.328446 -13.696444 0.309984 0.243525 19.181737 1.253487 0.551298 -26.747536 0.000000 0.000000 0.000000 -7.277564 8.171621 -3.745225 -65.176390 -2.476915 -7.167890 -22.846450 -25.512913 6.864629 0.000000 0.000000 0.000000 4.939365 -1.227090 -1.023773 69.968768 4.188745 -6.279217 11.165492 25.621749 3.272531 0.000000 0.000000 0.000000 
0.005631 0.938956 -0.075191 -2.340804 -4.959119 15.068617 -3.159407 -1.479210 -14.274414 -3.578407 0.413782 -1.134393 9.342522 19.329793 7.139120 0.000000 0.000000 0.000000 -0.179732 1.672504 -16.047617 5.048408 -0.370265 15.522039 -11.368251 -26.573782 7.300315 0.000000 0.000000 0.000000 -3.363707 0.258971 -2.723607 1.338316 -0.170075 -13.726947 -0.259636 0.062331 18.633613 2.505815 -0.079856 -25.993639 0.000000 0.000000 0.000000 -7.556947 8.136125 -3.796462 -65.230631 -1.975009 -7.527517 -21.149921 -22.878592 5.684197 0.000000 0.000000 0.000000 6.186867 -1.816307 -1.378406 69.120902 2.485461 -7.060634 11.809614 24.353269 3.232667 0.000000 0.000000 0.000000 
0.005438 0.937928 -0.080142 -1.988580 -4.970713 15.186756 -3.756463 -1.559808 -14.570731 -3.297593 0.385203 -1.626153 9.636703 19.850748 7.022044 0.000000 0.000000 0.000000 0.774601 1.466716 -13.769699 3.334321 -0.033055 13.597177 -10.809116 -25.486023 6.533296 0.000000 0.000000 0.000000 -3.645305 0.285323 -3.595152 1.158006 -0.100385 -14.046130 -0.257864 0.719215 18.591850 2.935522 -0.232881 -25.713051 0.000000 0.000000 0.000000 -7.918618 8.597489 -4.100012 -65.202906 -1.321486 -7.986406 -19.712511 -21.582495 5.002268 0.000000 0.000000 0.000000 6.043316 -2.551313 -1.608467 69.176041 0.787865 -7.966396 12.750967 24.440173 3.471565 0.000000 0.000000 0.000000 
0.005211 0.937773 -0.084069 -1.590906 -5.052808 14.992113 -4.512053 -1.659726 -14.859665 -3.078872 0.363169 -1.598860 10.299681 20.944174 7.811770 0.000000 0.000000 0.000000 1.119338 1.274198 -12.028924 2.600896 0.061564 11.706122 -10.426165 -24.691437 6.314691 0.000000 0.000000 0.000000 -3.859931 0.299735 -4.354665 1.286741 -0.144112 -13.978554 -0.672973 1.113577 18.413729 2.553241 0.033400 -25.708431 0.000000 0.000000 0.000000 -8.020935 9.533354 -4.561869 -65.443886 -0.565140 -8.470806 -18.059737 -19.842957 4.242548 0.000000 0.000000 0.000000 5.841252 -2.216971 -1.416641 68.616626 -0.080813 -8.332222 11.815562 23.930189 3.212691 0.000000 0.000000 0.000000 
0.004713 0.938152 -0.087066 -1.164003 -4.414306 14.843439 -5.310223 -1.750295 -14.964134 -2.703844 0.324141 -1.906358 10.632223 21.501506 8.207800 0.000000 0.000000 0.000000 0.710506 1.097628 -10.643136 3.166414 -0.078284 11.095582 -10.707010 -25.098833 7.579790 0.000000 0.000000 0.000000 -4.266444 0.305250 -4.516995 1.345673 -0.123589 -14.650077 -0.881279 1.200257 18.619035 2.647217 0.016022 -25.287703 0.000000 0.000000 0.000000 -7.959752 9.591141 -4.614317 -65.858881 0.211058 -9.062902 -16.746573 -18.232272 3.633388 0.000000 0.000000 0.000000 5.678956 -2.967663 -1.666212 68.243622 -0.753324 -8.613930 11.685223 23.818757 3.199847 0.000000 0.000000 0.000000 
